<svg width="96" height="44" viewBox="0 0 96 44" fill="none" xmlns="http://www.w3.org/2000/svg">
<path d="M77.6791 0H72.0968V44H77.6791V0Z" fill="#F6F7F9"/>
<path d="M80.3721 20.6043L84.8354 16.0576L94.8611 44.0001H88.5164L80.3721 20.6043Z" fill="#F6F7F9"/>
<path d="M63.4625 15.1191H50.8046V20.426H63.4625V15.1191Z" fill="#F6F7F9"/>
<path d="M63.4625 0H50.8046V9.78158H63.4625V0Z" fill="#F6F7F9"/>
<path d="M93.2088 0H87.6265V5.3529H93.2088V0Z" fill="#F6F7F9"/>
<path d="M90.4177 5.35254H84.8353V10.7054H90.4177V5.35254Z" fill="#F6F7F9"/>
<path d="M87.6802 10.7061H82.0979V16.059H87.6802V10.7061Z" fill="#F6F7F9"/>
<path d="M84.8354 16.0586H79.2531V21.4115H84.8354V16.0586Z" fill="#F6F7F9"/>
<path d="M84.8879 20.6289H76.4209V25.9818H84.8879V20.6289Z" fill="#F6F7F9"/>
<path d="M96.0001 38.6475H90.4177V44.0004H96.0001V38.6475Z" fill="#F6F7F9"/>
<path d="M24.9182 0H45.6503V5.33637H24.9182V0ZM32.4977 3.52925H38.0754V44H32.4977V3.52925Z" fill="#F6F7F9"/>
<path d="M27.8778 9.78125H42.6919V15.1188H27.8778V9.78125ZM32.4978 13.3105H38.0754V43.3847H32.4978V13.3105Z" fill="#F6F7F9"/>
<path d="M53.7981 9.78125H47.8088V43.9985H53.7981V9.78125Z" fill="#F6F7F9"/>
<path d="M66.5448 9.78125H60.5555V43.9985H66.5448V9.78125Z" fill="#F6F7F9"/>
<path d="M5.60104 12.9453H0V39.8113H5.60104V12.9453Z" fill="#F6F7F9"/>
<path d="M21.222 12.9453H15.6198V39.8113H21.222V12.9453Z" fill="#F6F7F9"/>
<path d="M21.2209 38.2627H0.0012207V44.0004H21.2209V38.2627Z" fill="#F6F7F9"/>
<path d="M21.2208 4.21387H15.6198V9.78159H21.2208V4.21387Z" fill="#F6F7F9"/>
<path d="M5.60221 4.21387H0V9.78159H5.60221V4.21387Z" fill="#F6F7F9"/>
<path d="M21.2197 0H0V5.33637H21.2197V0Z" fill="#F6F7F9"/>
</svg>
