<svg width="752" height="752" viewBox="0 0 752 752" fill="none" xmlns="http://www.w3.org/2000/svg">
<g filter="url(#filter0_f_774_3885)">
<circle cx="376" cy="376" r="176" fill="#E44297" fill-opacity="0.2"/>
</g>
<path d="M497.101 343.185C496.325 341.536 494.84 340.225 492.97 339.54C492.051 339.194 491.063 339.011 490.063 339H451.813C449.784 339 447.839 339.711 446.404 340.977C444.969 342.243 444.163 343.96 444.163 345.75C444.163 347.54 444.969 349.257 446.404 350.523C447.839 351.789 449.784 352.5 451.813 352.5H471.627L428.863 390.233L403.695 367.957C402.984 367.325 402.138 366.823 401.205 366.48C400.273 366.137 399.273 365.961 398.263 365.961C397.253 365.961 396.254 366.137 395.321 366.48C394.389 366.823 393.543 367.325 392.832 367.957L346.932 408.458C346.215 409.085 345.646 409.832 345.257 410.654C344.869 411.477 344.669 412.359 344.669 413.25C344.669 414.141 344.869 415.023 345.257 415.846C345.646 416.668 346.215 417.415 346.932 418.042C347.643 418.675 348.489 419.177 349.421 419.52C350.354 419.863 351.353 420.039 352.363 420.039C353.373 420.039 354.373 419.863 355.305 419.52C356.238 419.177 357.084 418.675 357.795 418.042L398.263 382.267L423.432 404.543C424.143 405.175 424.989 405.677 425.921 406.02C426.854 406.363 427.853 406.539 428.863 406.539C429.873 406.539 430.873 406.363 431.805 406.02C432.738 405.677 433.584 405.175 434.295 404.543L482.413 362.017V379.5C482.413 381.29 483.219 383.007 484.654 384.273C486.089 385.539 488.034 386.25 490.063 386.25C492.092 386.25 494.038 385.539 495.473 384.273C496.907 383.007 497.713 381.29 497.713 379.5V345.75C497.701 344.868 497.493 343.996 497.101 343.185V343.185Z" fill="#E44297"/>
<path d="M312.606 333.404C313.261 333.74 313.768 334.261 314.044 334.884C314.32 335.506 314.349 336.193 314.126 336.832L302.065 371.411H324.318C324.972 371.411 325.612 371.58 326.159 371.896C326.705 372.213 327.135 372.665 327.394 373.194C327.653 373.724 327.731 374.309 327.617 374.878C327.504 375.446 327.205 375.972 326.756 376.392L273.181 426.619C272.663 427.105 271.973 427.422 271.224 427.518C270.475 427.615 269.712 427.484 269.058 427.148C268.404 426.812 267.898 426.291 267.623 425.669C267.348 425.047 267.319 424.361 267.542 423.723L279.603 389.138H257.35C256.696 389.138 256.056 388.969 255.51 388.653C254.963 388.336 254.534 387.884 254.274 387.355C254.015 386.825 253.937 386.24 254.051 385.671C254.164 385.103 254.463 384.577 254.912 384.157L308.487 333.93C309.005 333.445 309.693 333.128 310.441 333.031C311.189 332.935 311.952 333.064 312.606 333.399V333.404Z" fill="#E44297"/>
<defs>
<filter id="filter0_f_774_3885" x="0" y="0" width="752" height="752" filterUnits="userSpaceOnUse" color-interpolation-filters="sRGB">
<feFlood flood-opacity="0" result="BackgroundImageFix"/>
<feBlend mode="normal" in="SourceGraphic" in2="BackgroundImageFix" result="shape"/>
<feGaussianBlur stdDeviation="100" result="effect1_foregroundBlur_774_3885"/>
</filter>
</defs>
</svg>
