<svg width="104" height="104" viewBox="0 0 104 104" fill="none" xmlns="http://www.w3.org/2000/svg">
<path d="M56.7667 62.0008H26.6667C20.6 62.0008 16.7333 55.5009 19.6667 50.1675L27.4333 36.0341L34.7 22.8008C37.7333 17.3008 45.6667 17.3008 48.7 22.8008L56 36.0341L59.5 42.4008L63.7667 50.1675C66.7 55.5009 62.8333 62.0008 56.7667 62.0008Z" fill="#E44297"/>
<path opacity="0.4" d="M85.3333 63.6667C85.3333 75.6333 75.6333 85.3333 63.6667 85.3333C51.7 85.3333 42 75.6333 42 63.6667C42 63.1 42.0333 62.5667 42.0667 62H56.7667C62.8333 62 66.7 55.5 63.7667 50.1667L59.5 42.4C60.8333 42.1333 62.2333 42 63.6667 42C75.6333 42 85.3333 51.7 85.3333 63.6667Z" fill="#E44297"/>
</svg>
