<svg width="104" height="104" viewBox="0 0 104 104" fill="none" xmlns="http://www.w3.org/2000/svg">
<path opacity="0.4" d="M18.6667 54.9334V49.0668C18.6667 45.6001 21.5 42.7334 25 42.7334C31.0333 42.7334 33.5 38.4668 30.4667 33.2334C28.7333 30.2334 29.7667 26.3334 32.8 24.6001L38.5667 21.3001C41.2 19.7334 44.6 20.6668 46.1667 23.3001L46.5333 23.9334C49.5333 29.1668 54.4667 29.1668 57.5 23.9334L57.8667 23.3001C59.4333 20.6668 62.8333 19.7334 65.4667 21.3001L71.2333 24.6001C74.2667 26.3334 75.3 30.2334 73.5667 33.2334C70.5333 38.4668 73 42.7334 79.0333 42.7334C82.5 42.7334 85.3667 45.5668 85.3667 49.0668V54.9334C85.3667 58.4001 82.5333 61.2668 79.0333 61.2668C73 61.2668 70.5333 65.5334 73.5667 70.7668C75.3 73.8001 74.2667 77.6668 71.2333 79.4001L65.4667 82.7001C62.8333 84.2668 59.4333 83.3335 57.8667 80.7001L57.5 80.0668C54.5 74.8335 49.5667 74.8335 46.5333 80.0668L46.1667 80.7001C44.6 83.3335 41.2 84.2668 38.5667 82.7001L32.8 79.4001C29.7667 77.6668 28.7333 73.7668 30.4667 70.7668C33.5 65.5334 31.0333 61.2668 25 61.2668C21.5 61.2668 18.6667 58.4001 18.6667 54.9334Z" fill="#27AAE2"/>
<path d="M52 62.8327C57.9831 62.8327 62.8333 57.9824 62.8333 51.9993C62.8333 46.0163 57.9831 41.166 52 41.166C46.0169 41.166 41.1667 46.0163 41.1667 51.9993C41.1667 57.9824 46.0169 62.8327 52 62.8327Z" fill="#27AAE2"/>
</svg>
