<svg width="104" height="104" viewBox="0 0 104 104" fill="none" xmlns="http://www.w3.org/2000/svg">
<path opacity="0.4" d="M28.6667 68.6673H75.3333C80.8667 68.6673 85.3333 64.2007 85.3333 58.6673V45.334C85.3333 39.8007 80.8667 35.334 75.3333 35.334H28.6667C23.1333 35.334 18.6667 39.8007 18.6667 45.334V58.6673C18.6667 64.2007 23.1333 68.6673 28.6667 68.6673Z" fill="#D2BD48"/>
<path d="M74.5 35.334V52.0007C74.5 53.3673 73.3667 54.5007 72 54.5007C70.6333 54.5007 69.5 53.3673 69.5 52.0007V35.334H74.5Z" fill="#D2BD48"/>
<path d="M34.5 35.334V48.0007C34.5 49.3673 33.3667 50.5007 32 50.5007C30.6333 50.5007 29.5 49.3673 29.5 48.0007V35.334H34.5Z" fill="#D2BD48"/>
<path d="M47.9667 35.334L47.8333 52.034C47.8333 53.4007 46.7 54.5007 45.3333 54.5007C45.3333 54.5007 45.3333 54.5007 45.3 54.5007C43.9333 54.5007 42.8333 53.3673 42.8333 51.9673L42.9667 35.334H47.9667Z" fill="#D2BD48"/>
<path d="M61.1667 35.334V44.0007C61.1667 45.3673 60.0333 46.5007 58.6667 46.5007C57.3 46.5007 56.1667 45.3673 56.1667 44.0007V35.334H61.1667Z" fill="#D2BD48"/>
</svg>
