<svg width="104" height="104" viewBox="0 0 104 104" fill="none" xmlns="http://www.w3.org/2000/svg">
<path d="M74.5 85.3327C80.4831 85.3327 85.3333 80.4824 85.3333 74.4993C85.3333 68.5163 80.4831 63.666 74.5 63.666C68.5169 63.666 63.6667 68.5163 63.6667 74.4993C63.6667 80.4824 68.5169 85.3327 74.5 85.3327Z" fill="#E36C41"/>
<path d="M75.3333 38.666C80.8562 38.666 85.3333 34.1889 85.3333 28.666C85.3333 23.1432 80.8562 18.666 75.3333 18.666C69.8105 18.666 65.3333 23.1432 65.3333 28.666C65.3333 34.1889 69.8105 38.666 75.3333 38.666Z" fill="#E36C41"/>
<path d="M28.6667 38.666C34.1895 38.666 38.6667 34.1889 38.6667 28.666C38.6667 23.1432 34.1895 18.666 28.6667 18.666C23.1438 18.666 18.6667 23.1432 18.6667 28.666C18.6667 34.1889 23.1438 38.666 28.6667 38.666Z" fill="#E36C41"/>
<path opacity="0.4" d="M28.1 38.7324C31.3333 47.9991 40.0667 54.2324 49.9 54.2324C49.9333 54.2324 49.9667 54.2324 50 54.2324L61.7667 54.1991C66.8333 54.1324 71.3667 57.5657 72.7333 62.4991V68.6657C72.7333 70.0657 73.8667 71.1991 75.2667 71.1991C76.6667 71.1991 77.8 70.0657 77.8 68.6657V31.2657C77.8 29.8657 76.6667 28.7324 75.2667 28.7324C73.8667 28.7324 72.7333 29.8657 72.7333 31.2657V53.3324C69.8 50.7324 65.9667 49.1324 61.8 49.1324C61.7667 49.1324 61.7667 49.1324 61.7333 49.1324L49.9667 49.1657C49.9333 49.1657 49.9333 49.1657 49.9 49.1657C42.2667 49.1657 35.4333 44.3324 32.9333 37.0991C32.5667 36.0324 31.5667 35.3991 30.5333 35.3991C30.2667 35.3991 29.9667 35.4324 29.7 35.5324C28.3333 35.9324 27.6333 37.3991 28.1 38.7324Z" fill="#E36C41"/>
</svg>
