<svg width="150" height="40" viewBox="0 0 150 40" fill="none" xmlns="http://www.w3.org/2000/svg">
<path d="M27.439 0.908203C25.0368 0.908203 22.6581 1.3903 20.4387 2.3268C18.2193 3.26341 16.2028 4.63611 14.5041 6.36663C12.8055 8.09726 11.4581 10.1516 10.5388 12.4127C9.61957 14.6738 9.14636 17.0972 9.14636 19.5446C9.14636 21.9919 9.61957 24.4154 10.5388 26.6764C11.4581 28.9375 12.8055 30.9919 14.5041 32.7225C16.2028 34.453 18.8172 35.4261 21.0366 36.3627C23.256 37.2992 25.0368 38.1809 27.439 38.1809V29.7298C26.2379 29.7298 24.8902 29.1038 23.7805 28.6355C22.6708 28.1672 21.8209 26.9988 20.9716 26.1335C20.1223 25.2683 19.4486 24.241 18.989 23.1105C18.5293 21.98 18.2927 21.2228 18.2927 19.9991C18.2927 18.7754 18.5293 17.1092 18.989 15.9786C19.4486 14.8481 20.1223 13.8209 20.9716 12.9556C21.8209 12.0903 22.8292 11.404 23.9389 10.9357C25.0486 10.4674 26.2379 10.2264 27.439 10.2264V0.908203Z" fill="white"/>
<path d="M27.8963 25.4549C31.1797 25.4549 33.8414 22.8094 33.8414 19.5458C33.8414 16.2823 31.1797 13.6367 27.8963 13.6367C24.6128 13.6367 21.9512 16.2823 21.9512 19.5458C21.9512 22.8094 24.6128 25.4549 27.8963 25.4549Z" fill="white"/>
<path d="M9.14636 20C9.14636 22.3876 9.6314 24.752 10.5736 26.9579C11.5159 29.1638 12.897 31.1681 14.6381 32.8565C16.3793 34.5448 18.4461 35.8841 20.721 36.7978C22.9959 37.7115 25.4341 38.1818 27.8964 38.1818C30.3586 38.1818 32.7969 37.7115 35.0717 36.7978C37.3466 35.8841 39.4135 34.5448 41.1546 32.8565C42.8957 31.1681 44.2768 29.1638 45.2191 26.9579C46.1613 24.752 46.6464 22.3876 46.6464 20H37.2714C37.2714 21.1939 37.0289 22.376 36.5577 23.479C36.0866 24.5819 35.396 25.5841 34.5255 26.4283C33.655 27.2724 32.6215 27.942 31.484 28.3989C30.3466 28.8558 29.1275 29.0909 27.8964 29.0909C26.6652 29.0909 25.4461 28.8558 24.3087 28.3989C23.1713 27.942 22.1378 27.2724 21.2672 26.4283C20.3967 25.5841 19.7061 24.5819 19.235 23.479C18.7638 22.376 18.5214 21.1939 18.5214 20H9.14636Z" fill="white"/>
<path d="M33.8414 20.0004C33.8414 18.3126 33.215 16.6941 32.1002 15.5006C30.9852 14.3072 29.4731 13.6367 27.8963 13.6367C26.3196 13.6367 24.8075 14.3072 23.6925 15.5006C22.5775 16.6941 21.9512 18.3126 21.9512 20.0004H27.8963H33.8414Z" fill="white"/>
<path d="M56.7078 12.7266H53.9639V25.4538H56.7078V12.7266Z" fill="white"/>
<path d="M57.6223 20.9087C57.6223 23.7193 59.7893 25.4542 62.6528 25.4542C65.5163 25.4542 67.6833 23.7193 67.6833 20.9087C67.6833 18.0982 65.5163 16.3633 62.6528 16.3633C59.7893 16.3633 57.6223 18.0982 57.6223 20.9087ZM60.0602 20.9087C60.0602 19.2432 61.1437 18.2717 62.6528 18.2717C64.1619 18.2717 65.2454 19.2432 65.2454 20.9087C65.2454 22.5742 64.1619 23.5458 62.6528 23.5458C61.1437 23.5458 60.0602 22.5742 60.0602 20.9087Z" fill="white"/>
<path d="M75.5712 16.6094V17.7871H75.396C74.8703 17.0313 74.0293 16.3633 72.5224 16.3633C70.4548 16.3633 68.5975 18.1212 68.5975 20.8284C68.5975 23.5356 70.4548 25.2935 72.5224 25.2935C74.0293 25.2935 74.8703 24.6078 75.3609 23.9223H75.5361V24.7661C75.5361 26.4537 74.5549 27.2272 73.1181 27.2272C71.6814 27.2272 70.9454 26.4537 70.6475 25.4516L68.6676 26.3131C69.1232 27.6314 70.4548 29.0906 73.1532 29.0906C75.9216 29.0906 77.7439 27.6314 77.7439 24.8188V16.6094H75.5712ZM73.1882 23.3949C71.8215 23.3949 70.8053 22.4105 70.8053 20.8284C70.8053 19.2463 71.8215 18.2618 73.1882 18.2618C74.5549 18.2618 75.5712 19.2463 75.5712 20.8284C75.5712 22.4105 74.5549 23.3949 73.1882 23.3949Z" fill="white"/>
<path d="M79.5731 20.9087C79.5731 23.7193 81.7401 25.4542 84.6037 25.4542C87.4672 25.4542 89.6341 23.7193 89.6341 20.9087C89.6341 18.0982 87.4672 16.3633 84.6037 16.3633C81.7401 16.3633 79.5731 18.0982 79.5731 20.9087ZM82.011 20.9087C82.011 19.2432 83.0945 18.2717 84.6037 18.2717C86.1128 18.2717 87.1963 19.2432 87.1963 20.9087C87.1963 22.5742 86.1128 23.5458 84.6037 23.5458C83.0945 23.5458 82.011 22.5742 82.011 20.9087Z" fill="white"/>
<path d="M91.4634 13.4337C91.4634 14.3917 92.0647 15.049 92.8358 15.049C93.606 15.049 94.2073 14.3917 94.2073 13.4337C94.2073 12.4758 93.606 11.8184 92.8358 11.8184C92.0647 11.8184 91.4634 12.4758 91.4634 13.4337ZM93.8061 16.1384H91.8646V25.4547H93.8061V16.1384Z" fill="white"/>
<path d="M96.0366 29.0906H98.2447V24.3582H98.4194C98.91 25.0752 99.751 25.7564 101.258 25.7564C103.325 25.7564 105.183 23.9638 105.183 21.0598C105.183 18.1559 103.325 16.3633 101.258 16.3633C99.751 16.3633 98.91 17.0445 98.3849 17.8153H98.2092V16.6142H96.0366V29.0906ZM100.592 23.8204C99.2259 23.8204 98.2092 22.8165 98.2092 21.0598C98.2092 19.3031 99.2259 18.2993 100.592 18.2993C101.959 18.2993 102.975 19.3031 102.975 21.0598C102.975 22.8165 101.959 23.8204 100.592 23.8204Z" fill="white"/>
<path d="M107.348 19.0177C107.348 20.7179 108.874 21.3425 110.811 21.6895L111.296 21.7762C112.45 21.9844 112.971 22.2447 112.971 22.7998C112.971 23.355 112.45 23.7887 111.37 23.7887C110.29 23.7887 109.415 23.3723 109.172 22.1232L107.012 22.6436C107.33 24.4479 108.949 25.4542 111.37 25.4542C113.716 25.4542 115.244 24.4306 115.244 22.6263C115.244 20.8219 113.68 20.3363 111.594 19.9546L111.109 19.8678C110.141 19.6943 109.619 19.4514 109.619 18.8789C109.619 18.3585 110.104 18.0288 110.998 18.0288C111.892 18.0288 112.524 18.3758 112.748 19.3126L114.871 18.7055C114.425 17.3175 113.065 16.3633 110.998 16.3633C108.8 16.3633 107.348 17.3175 107.348 19.0177Z" fill="white"/>
<path d="M125.305 25.3099V16.3633H122.904V20.9809C122.904 22.6403 122.047 23.6144 120.579 23.6144C119.283 23.6144 118.56 22.947 118.56 21.5942V16.3633H116.158V21.7024C116.158 23.9211 117.626 25.4542 119.837 25.4542C121.57 25.4542 122.371 24.7327 122.752 23.9751H122.942V25.3099H125.305Z" fill="white"/>
<path d="M127.134 16.5076V25.4542H129.542V20.1151C129.542 18.8885 130.153 18.2031 131.261 18.2031C132.217 18.2031 132.79 18.7082 132.79 19.6822V25.4542H135.198V20.1151C135.198 18.8885 135.809 18.2031 136.917 18.2031C137.873 18.2031 138.445 18.7082 138.445 19.6822V25.4542H140.853V19.574C140.853 17.4095 139.439 16.3633 137.681 16.3633C136.134 16.3633 135.427 17.0126 134.968 17.7702H134.777C134.337 16.9225 133.554 16.3633 132.178 16.3633C130.802 16.3633 130.057 16.9405 129.695 17.6259H129.503V16.5076H127.134Z" fill="white"/>
</svg>
