<svg width="150" height="40" viewBox="0 0 150 40" fill="none" xmlns="http://www.w3.org/2000/svg">
<path d="M44.8732 12.8275H48.5243V27.5009H44.8732V12.8275ZM49.9726 21.9606C49.9726 18.3315 52.212 16.1662 55.6684 16.1662C59.1249 16.1662 61.3642 18.3315 61.3642 21.9606C61.3642 25.5896 59.1736 27.767 55.6684 27.767C52.1633 27.767 49.9726 25.6501 49.9726 21.9606ZM57.7009 21.9606C57.7009 19.9646 56.9098 18.7912 55.6684 18.7912C54.427 18.7912 53.6481 20.0009 53.6481 21.9606C53.6481 23.9202 54.4149 25.1057 55.6684 25.1057C56.922 25.1057 57.7009 23.9928 57.7009 21.9727V21.9606ZM62.7395 28.2146H66.2446C66.4115 28.5829 66.6935 28.8879 67.0487 29.0841C67.404 29.2802 67.8135 29.3571 68.2163 29.3033C69.6037 29.3033 70.3339 28.5533 70.3339 27.4646V25.4323H70.2609C69.97 26.0552 69.4979 26.5771 68.9057 26.9308C68.3135 27.2844 67.6282 27.4535 66.9384 27.4162C64.273 27.4162 62.5083 25.3961 62.5083 21.9243C62.5083 18.4525 64.1878 16.263 66.987 16.263C67.6985 16.2353 68.4015 16.4244 69.0019 16.8048C69.6022 17.1854 70.0713 17.7392 70.3461 18.392V16.3719H73.9973V27.3799C73.9973 30.0291 71.6483 31.6743 68.1797 31.6743C64.9546 31.6743 62.9464 30.2348 62.7395 28.2267V28.2146ZM70.3461 21.9485C70.3461 20.1823 69.5307 19.0694 68.2406 19.0694C66.9505 19.0694 66.1594 20.1702 66.1594 21.9485C66.1594 23.7267 66.9384 24.7307 68.2406 24.7307C69.5428 24.7307 70.3461 23.7509 70.3461 21.9606V21.9485ZM75.3725 21.9485C75.3725 18.3194 77.6119 16.1541 81.0683 16.1541C84.5248 16.1541 86.7763 18.3194 86.7763 21.9485C86.7763 25.5775 84.5856 27.7549 81.0683 27.7549C77.5511 27.7549 75.3725 25.6501 75.3725 21.9606V21.9485ZM83.1008 21.9485C83.1008 19.9525 82.3097 18.7791 81.0683 18.7791C79.8269 18.7791 79.1089 20.0009 79.1089 21.9727C79.1089 23.9444 79.8756 25.1178 81.117 25.1178C82.3584 25.1178 83.1008 23.9928 83.1008 21.9727V21.9485ZM88.1638 13.7348C88.1542 13.3684 88.2543 13.0074 88.4514 12.6976C88.6485 12.3878 88.9337 12.1432 89.2708 11.9947C89.6079 11.8462 89.9818 11.8005 90.3451 11.8635C90.7084 11.9264 91.0447 12.0952 91.3113 12.3483C91.5781 12.6015 91.7631 12.9277 91.843 13.2855C91.923 13.6433 91.8943 14.0166 91.7604 14.3582C91.6267 14.6997 91.3938 14.9942 91.0915 15.204C90.7893 15.4139 90.431 15.5299 90.0624 15.5372C89.818 15.5539 89.5728 15.5201 89.3421 15.4381C89.1114 15.3561 88.9003 15.2276 88.722 15.0606C88.5437 14.8936 88.4021 14.6917 88.306 14.4677C88.2099 14.2438 88.1615 14.0025 88.1638 13.759V13.7348ZM88.1638 16.3961H91.8149V27.5009H88.1638V16.3961ZM105.069 21.9485C105.069 25.5775 103.45 27.6461 100.675 27.6461C99.9636 27.6914 99.2551 27.5186 98.6456 27.1508C98.0361 26.7829 97.555 26.238 97.2673 25.5896H97.1943V31.0573H93.5431V16.3719H97.1943V18.3557H97.2673C97.5416 17.6966 98.0136 17.1375 98.619 16.7544C99.2243 16.3713 99.9338 16.1828 100.651 16.2146C103.45 16.263 105.117 18.3436 105.117 21.9727L105.069 21.9485ZM101.417 21.9485C101.417 20.1823 100.602 19.0573 99.3241 19.0573C98.0462 19.0573 97.2308 20.1944 97.2186 21.9485C97.2065 23.7025 98.0462 24.8275 99.3241 24.8275C100.602 24.8275 101.417 23.7267 101.417 21.9727V21.9485ZM111.336 16.142C114.367 16.142 116.205 17.5694 116.29 19.8557H112.967C112.967 19.0694 112.31 18.5735 111.3 18.5735C110.29 18.5735 109.839 18.9606 109.839 19.5291C109.839 20.0977 110.241 20.2791 111.057 20.4485L113.393 20.9202C115.62 21.392 116.57 22.2872 116.57 23.9686C116.57 26.267 114.464 27.7428 111.361 27.7428C108.257 27.7428 106.225 26.267 106.067 24.0049H109.584C109.693 24.8275 110.351 25.3114 111.422 25.3114C112.493 25.3114 112.979 24.9606 112.979 24.3799C112.979 23.7993 112.639 23.6783 111.762 23.4969L109.657 23.0493C107.478 22.6017 106.334 21.4525 106.334 19.759C106.359 17.5815 108.318 16.1662 111.336 16.1662V16.142ZM128.752 27.4767H125.235V25.4081H125.162C124.969 26.1026 124.543 26.7105 123.954 27.1309C123.365 27.5511 122.649 27.7586 121.925 27.7186C121.37 27.75 120.815 27.6626 120.297 27.4624C119.779 27.2622 119.311 26.954 118.923 26.5583C118.536 26.1627 118.238 25.6889 118.05 25.1691C117.863 24.6493 117.789 24.0955 117.836 23.5452V16.3719H121.487V22.7106C121.487 24.0291 122.168 24.7307 123.3 24.7307C123.565 24.7312 123.828 24.6754 124.07 24.5669C124.311 24.4584 124.528 24.2997 124.703 24.1016C124.877 23.9033 125.009 23.6702 125.086 23.4179C125.162 23.1654 125.185 22.8995 125.15 22.638V16.3719H128.801L128.752 27.4767ZM130.517 16.3719H134.047V18.513H134.12C134.313 17.8277 134.731 17.2255 135.305 16.8009C135.88 16.3763 136.581 16.153 137.296 16.1662C138.025 16.1083 138.748 16.3249 139.324 16.7732C139.898 17.2215 140.283 17.8685 140.4 18.5856H140.473C140.693 17.8609 141.151 17.2299 141.773 16.7919C142.393 16.3538 143.144 16.1337 143.905 16.1662C144.401 16.1496 144.895 16.2371 145.356 16.4229C145.817 16.6086 146.232 16.8886 146.576 17.2445C146.921 17.6005 147.186 18.0245 147.355 18.4889C147.523 18.9533 147.592 19.4479 147.556 19.9404V27.5009H143.905V20.9081C143.905 19.6985 143.357 19.142 142.335 19.142C142.107 19.1401 141.881 19.1868 141.673 19.279C141.465 19.3711 141.278 19.5066 141.127 19.6763C140.977 19.8461 140.863 20.0459 140.796 20.2625C140.73 20.4793 140.711 20.7077 140.74 20.9323V27.5009H137.272V20.8598C137.272 19.7469 136.724 19.142 135.726 19.142C135.496 19.1421 135.267 19.1908 135.058 19.2848C134.847 19.3789 134.659 19.5162 134.507 19.6876C134.353 19.859 134.239 20.0608 134.17 20.2796C134.101 20.4983 134.08 20.729 134.108 20.9565V27.5009H130.456L130.517 16.3719Z" fill="white"/>
<path d="M34.6617 13.4927C34.0423 12.085 33.2226 10.7732 32.2276 9.59751C30.7568 7.8076 28.9212 6.34758 26.8417 5.31356C24.7623 4.27955 22.486 3.69497 20.1629 3.59831C17.8398 3.50164 15.5224 3.89508 13.3632 4.75274C11.2041 5.61039 9.25224 6.91281 7.63603 8.57428C6.0198 10.2357 4.77591 12.2186 3.98623 14.3923C3.19654 16.566 2.87895 18.8813 3.05438 21.1857C3.22982 23.4903 3.89427 25.7317 5.00403 27.7625C6.11378 29.7934 7.64368 31.5677 9.49302 32.9685C10.6796 33.8853 11.9908 34.6306 13.3876 35.1822C15.3458 35.9798 17.4417 36.3907 19.558 36.3919C23.9265 36.3823 28.113 34.6515 31.1998 31.5789C34.2865 28.5063 36.0216 24.3427 36.0248 20.0007C36.0279 17.761 35.5639 15.545 34.6617 13.4927ZM19.5459 6.92411C21.4464 6.92392 23.324 7.33678 25.047 8.13379C24.6268 8.31424 24.185 8.44027 23.7325 8.5088C22.2436 8.72302 20.8643 9.41009 19.8005 10.4675C18.7367 11.5248 18.0454 12.8958 17.8298 14.3757C17.7353 15.2057 17.3554 15.9778 16.7546 16.5619C16.1537 17.1459 15.3686 17.5059 14.5316 17.5814C13.0427 17.7956 11.6633 18.4827 10.5995 19.5401C9.53571 20.5975 8.84444 21.9684 8.62891 23.4483C8.55594 24.2375 8.21717 24.9792 7.66744 25.5532C6.71893 23.5612 6.29284 21.363 6.42881 19.1633C6.56478 16.9636 7.25839 14.8338 8.4451 12.9721C9.6318 11.1106 11.273 9.57756 13.2161 8.51586C15.1591 7.45417 17.3408 6.89828 19.558 6.89992L19.5459 6.92411ZM9.48085 28.4685C9.6269 28.3354 9.77294 28.2144 9.91899 28.0693C11.0017 27.0259 11.6968 25.6486 11.8906 24.162C11.9692 23.3264 12.3446 22.5459 12.9494 21.9604C13.5316 21.3582 14.315 20.9882 15.1523 20.9201C16.6412 20.7059 18.0205 20.0188 19.0844 18.9614C20.1482 17.904 20.8395 16.5331 21.055 15.0532C21.1077 14.1792 21.485 13.3557 22.1139 12.7427C22.7103 12.1522 23.5012 11.7956 24.3411 11.7386C25.7089 11.5516 26.9846 10.9472 27.9922 10.0088C29.1395 10.9549 30.1115 12.0929 30.8645 13.3717C30.8182 13.4338 30.7652 13.4906 30.7063 13.5411C30.1254 14.1486 29.3429 14.5267 28.5034 14.6056C27.0129 14.8161 25.6315 15.5019 24.5669 16.5599C23.5025 17.618 22.8124 18.991 22.6007 20.4725C22.5149 21.3052 22.1421 22.083 21.5455 22.6738C20.9488 23.2647 20.165 23.6323 19.3268 23.7144C17.8335 23.927 16.4491 24.6128 15.379 25.6696C14.3091 26.7267 13.6107 28.0984 13.3876 29.5814C13.3221 30.1725 13.1178 30.7402 12.7912 31.2386C11.5425 30.5017 10.4242 29.5659 9.48085 28.4685ZM19.5459 33.1378C18.3109 33.1392 17.0818 32.9681 15.8947 32.6298C16.3008 31.8773 16.5648 31.0573 16.6736 30.2104C16.7589 29.3795 17.13 28.6032 17.7242 28.0127C18.3183 27.4221 19.0993 27.0533 19.9353 26.9685C21.4265 26.7567 22.8085 26.0707 23.8748 25.013C24.9409 23.9555 25.6341 22.5832 25.8502 21.1015C25.9355 20.2706 26.3066 19.4944 26.9008 18.9038C27.4949 18.3132 28.2759 17.9444 29.1119 17.8596C30.234 17.7146 31.3036 17.2993 32.2276 16.6499C32.7407 18.5829 32.8014 20.6069 32.4053 22.5668C32.0091 24.5267 31.1664 26.3705 29.9421 27.9565C28.7177 29.5424 27.1442 30.8287 25.342 31.7163C23.5399 32.604 21.5572 33.0696 19.5459 33.0773V33.1378Z" fill="white"/>
</svg>
