<svg width="150" height="40" viewBox="0 0 150 40" fill="none" xmlns="http://www.w3.org/2000/svg">
<path d="M8.4205 18.7257C9.25887 15.3367 11.2005 12.3272 13.9363 10.1766C16.6721 8.02581 20.0447 6.85742 23.5171 6.85742C26.9895 6.85742 30.3621 8.02581 33.0979 10.1766C35.8337 12.3272 37.7753 15.3367 38.6137 18.7257H37.25C34.9497 18.6916 32.6965 19.383 30.8069 20.7028C30.6978 20.7822 30.5839 20.8548 30.466 20.9199H30.3069C30.1889 20.8548 30.075 20.7822 29.966 20.7028C28.0596 19.4135 25.8144 18.725 23.5171 18.725C21.2198 18.725 18.9746 19.4135 17.0682 20.7028C16.9591 20.7822 16.8453 20.8548 16.7273 20.9199H16.5682C16.4503 20.8548 16.3364 20.7822 16.2273 20.7028C14.3377 19.383 12.0845 18.6916 9.78413 18.7257H8.4205ZM34.7955 25.8914C35.4955 25.3431 36.3631 25.0563 37.25 25.0799H39.0796V21.4114H37.25C35.6878 21.3924 34.1613 21.8814 32.8978 22.8057C32.1867 23.3328 31.3266 23.6173 30.4432 23.6173C29.5598 23.6173 28.6997 23.3328 27.9887 22.8057C26.6931 21.8987 25.1524 21.4124 23.5739 21.4124C21.9954 21.4124 20.4547 21.8987 19.1591 22.8057C18.4481 23.3328 17.588 23.6173 16.7046 23.6173C15.8212 23.6173 14.9611 23.3328 14.25 22.8057C12.971 21.8695 11.4225 21.3799 9.84095 21.4114H7.95459V25.0799H9.78413C10.6711 25.0563 11.5387 25.3431 12.2387 25.8914C13.5319 26.799 15.0708 27.2856 16.6478 27.2856C18.2247 27.2856 19.7637 26.799 21.0569 25.8914C21.7578 25.3448 22.6247 25.0582 23.5114 25.0799C24.3987 25.0543 25.2669 25.3414 25.966 25.8914C27.2615 26.7984 28.8022 27.2846 30.3807 27.2846C31.9592 27.2846 33.4999 26.7984 34.7955 25.8914ZM34.7955 32.4514C35.4955 31.9031 36.3631 31.6163 37.25 31.6399H39.0796V27.9714H37.25C35.6878 27.9524 34.1613 28.4414 32.8978 29.3656C32.1867 29.8928 31.3266 30.1773 30.4432 30.1773C29.5598 30.1773 28.6997 29.8928 27.9887 29.3656C26.6931 28.4587 25.1524 27.9725 23.5739 27.9725C21.9954 27.9725 20.4547 28.4587 19.1591 29.3656C18.4481 29.8928 17.588 30.1773 16.7046 30.1773C15.8212 30.1773 14.9611 29.8928 14.25 29.3656C12.971 28.4296 11.4225 27.9399 9.84095 27.9714H7.95459V31.6399H9.78413C10.6711 31.6163 11.5387 31.9031 12.2387 32.4514C13.5319 33.359 15.0708 33.8456 16.6478 33.8456C18.2247 33.8456 19.7637 33.359 21.0569 32.4514C21.7578 31.9048 22.6247 31.6182 23.5114 31.6399C24.3987 31.6143 25.2669 31.9014 25.966 32.4514C27.2615 33.3584 28.8022 33.8446 30.3807 33.8446C31.9592 33.8446 33.4999 33.3584 34.7955 32.4514Z" fill="#4B5567"/>
<path d="M64.9929 21.592C64.9929 22.904 64.6969 24.064 64.1049 25.072C63.5289 26.064 62.7449 26.84 61.7529 27.4C60.7769 27.96 59.6809 28.24 58.4649 28.24C57.2489 28.24 56.1449 27.96 55.1529 27.4C54.1769 26.84 53.3929 26.064 52.8009 25.072C52.2249 24.064 51.9369 22.904 51.9369 21.592C51.9369 20.28 52.2249 19.128 52.8009 18.136C53.3929 17.128 54.1769 16.344 55.1529 15.784C56.1449 15.208 57.2489 14.92 58.4649 14.92C59.6809 14.92 60.7769 15.208 61.7529 15.784C62.7449 16.344 63.5289 17.128 64.1049 18.136C64.6969 19.128 64.9929 20.28 64.9929 21.592ZM62.1129 21.592C62.1129 20.776 61.9449 20.072 61.6089 19.48C61.2889 18.872 60.8489 18.4 60.2889 18.064C59.7449 17.728 59.1369 17.56 58.4649 17.56C57.7929 17.56 57.1769 17.728 56.6169 18.064C56.0729 18.4 55.6329 18.872 55.2969 19.48C54.9769 20.072 54.8169 20.776 54.8169 21.592C54.8169 22.392 54.9769 23.096 55.2969 23.704C55.6329 24.296 56.0729 24.76 56.6169 25.096C57.1769 25.432 57.7929 25.6 58.4649 25.6C59.1369 25.6 59.7449 25.432 60.2889 25.096C60.8489 24.76 61.2889 24.296 61.6089 23.704C61.9449 23.096 62.1129 22.392 62.1129 21.592ZM74.5935 10.24C74.9455 10.24 75.2895 10.288 75.6255 10.384C75.9615 10.48 76.2415 10.64 76.4655 10.864C76.6895 11.072 76.8015 11.352 76.8015 11.704C76.8015 12.104 76.6815 12.424 76.4415 12.664C76.2175 12.888 75.9535 13 75.6495 13C75.5055 13 75.2895 12.968 75.0015 12.904C74.7135 12.824 74.4335 12.784 74.1615 12.784C73.7615 12.784 73.4495 12.872 73.2255 13.048C73.0175 13.224 72.8735 13.432 72.7935 13.672C72.7135 13.896 72.6735 14.096 72.6735 14.272V26.536C72.6735 26.952 72.5375 27.304 72.2655 27.592C71.9935 27.864 71.6495 28 71.2335 28C70.8175 28 70.4735 27.864 70.2015 27.592C69.9295 27.304 69.7935 26.952 69.7935 26.536V14.296C69.7935 13.16 70.1935 12.2 70.9935 11.416C71.7935 10.632 72.9935 10.24 74.5935 10.24ZM74.8575 15.4C75.2415 15.4 75.5615 15.528 75.8175 15.784C76.0735 16.024 76.2015 16.336 76.2015 16.72C76.2015 17.104 76.0735 17.424 75.8175 17.68C75.5615 17.92 75.2415 18.04 74.8575 18.04H68.4975C68.1135 18.04 67.7935 17.92 67.5375 17.68C67.2815 17.424 67.1535 17.104 67.1535 16.72C67.1535 16.336 67.2815 16.024 67.5375 15.784C67.7935 15.528 68.1135 15.4 68.4975 15.4H74.8575ZM85.0815 10.24C85.4335 10.24 85.7775 10.288 86.1135 10.384C86.4495 10.48 86.7295 10.64 86.9535 10.864C87.1775 11.072 87.2895 11.352 87.2895 11.704C87.2895 12.104 87.1695 12.424 86.9295 12.664C86.7055 12.888 86.4415 13 86.1375 13C85.9935 13 85.7775 12.968 85.4895 12.904C85.2015 12.824 84.9215 12.784 84.6495 12.784C84.2495 12.784 83.9375 12.872 83.7135 13.048C83.5055 13.224 83.3615 13.432 83.2815 13.672C83.2015 13.896 83.1615 14.096 83.1615 14.272V26.536C83.1615 26.952 83.0255 27.304 82.7535 27.592C82.4815 27.864 82.1375 28 81.7215 28C81.3055 28 80.9615 27.864 80.6895 27.592C80.4175 27.304 80.2815 26.952 80.2815 26.536V14.296C80.2815 13.16 80.6815 12.2 81.4815 11.416C82.2815 10.632 83.4815 10.24 85.0815 10.24ZM85.3455 15.4C85.7295 15.4 86.0495 15.528 86.3055 15.784C86.5615 16.024 86.6895 16.336 86.6895 16.72C86.6895 17.104 86.5615 17.424 86.3055 17.68C86.0495 17.92 85.7295 18.04 85.3455 18.04H78.9855C78.6015 18.04 78.2815 17.92 78.0255 17.68C77.7695 17.424 77.6415 17.104 77.6415 16.72C77.6415 16.336 77.7695 16.024 78.0255 15.784C78.2815 15.528 78.6015 15.4 78.9855 15.4H85.3455ZM96.1941 14.92C97.4741 14.92 98.4181 15.232 99.0261 15.856C99.6341 16.464 100.034 17.256 100.226 18.232L99.8181 18.016L100.01 17.632C100.202 17.264 100.498 16.872 100.898 16.456C101.298 16.024 101.778 15.664 102.338 15.376C102.914 15.072 103.554 14.92 104.258 14.92C105.41 14.92 106.282 15.168 106.874 15.664C107.482 16.16 107.898 16.824 108.122 17.656C108.346 18.472 108.458 19.384 108.458 20.392V26.536C108.458 26.952 108.322 27.304 108.05 27.592C107.778 27.864 107.434 28 107.018 28C106.602 28 106.258 27.864 105.986 27.592C105.714 27.304 105.578 26.952 105.578 26.536V20.392C105.578 19.864 105.514 19.392 105.386 18.976C105.258 18.544 105.026 18.2 104.69 17.944C104.354 17.688 103.874 17.56 103.25 17.56C102.642 17.56 102.122 17.688 101.69 17.944C101.258 18.2 100.93 18.544 100.706 18.976C100.498 19.392 100.394 19.864 100.394 20.392V26.536C100.394 26.952 100.258 27.304 99.9861 27.592C99.7141 27.864 99.3701 28 98.9541 28C98.5381 28 98.1941 27.864 97.9221 27.592C97.6501 27.304 97.5141 26.952 97.5141 26.536V20.392C97.5141 19.864 97.4501 19.392 97.3221 18.976C97.1941 18.544 96.9621 18.2 96.6261 17.944C96.2901 17.688 95.8101 17.56 95.1861 17.56C94.5781 17.56 94.0581 17.688 93.6261 17.944C93.1941 18.2 92.8661 18.544 92.6421 18.976C92.4341 19.392 92.3301 19.864 92.3301 20.392V26.536C92.3301 26.952 92.1941 27.304 91.9221 27.592C91.6501 27.864 91.3061 28 90.8901 28C90.4741 28 90.1301 27.864 89.8581 27.592C89.5861 27.304 89.4501 26.952 89.4501 26.536V16.624C89.4501 16.208 89.5861 15.864 89.8581 15.592C90.1301 15.304 90.4741 15.16 90.8901 15.16C91.3061 15.16 91.6501 15.304 91.9221 15.592C92.1941 15.864 92.3301 16.208 92.3301 16.624V17.656L91.9701 17.584C92.1141 17.312 92.3141 17.024 92.5701 16.72C92.8261 16.4 93.1381 16.104 93.5061 15.832C93.8741 15.56 94.2821 15.344 94.7301 15.184C95.1781 15.008 95.6661 14.92 96.1941 14.92ZM122.567 14.92C122.983 14.92 123.327 15.056 123.599 15.328C123.871 15.6 124.007 15.952 124.007 16.384V26.536C124.007 26.952 123.871 27.304 123.599 27.592C123.327 27.864 122.983 28 122.567 28C122.151 28 121.807 27.864 121.535 27.592C121.263 27.304 121.127 26.952 121.127 26.536V25.36L121.655 25.576C121.655 25.784 121.543 26.04 121.319 26.344C121.095 26.632 120.791 26.92 120.407 27.208C120.023 27.496 119.567 27.744 119.039 27.952C118.527 28.144 117.967 28.24 117.359 28.24C116.255 28.24 115.255 27.96 114.359 27.4C113.463 26.824 112.751 26.04 112.223 25.048C111.711 24.04 111.455 22.888 111.455 21.592C111.455 20.28 111.711 19.128 112.223 18.136C112.751 17.128 113.455 16.344 114.335 15.784C115.215 15.208 116.191 14.92 117.263 14.92C117.951 14.92 118.583 15.024 119.159 15.232C119.735 15.44 120.231 15.704 120.647 16.024C121.079 16.344 121.407 16.672 121.631 17.008C121.871 17.328 121.991 17.6 121.991 17.824L121.127 18.136V16.384C121.127 15.968 121.263 15.624 121.535 15.352C121.807 15.064 122.151 14.92 122.567 14.92ZM117.719 25.6C118.423 25.6 119.039 25.424 119.567 25.072C120.095 24.72 120.503 24.24 120.791 23.632C121.095 23.024 121.247 22.344 121.247 21.592C121.247 20.824 121.095 20.136 120.791 19.528C120.503 18.92 120.095 18.44 119.567 18.088C119.039 17.736 118.423 17.56 117.719 17.56C117.031 17.56 116.423 17.736 115.895 18.088C115.367 18.44 114.951 18.92 114.647 19.528C114.359 20.136 114.215 20.824 114.215 21.592C114.215 22.344 114.359 23.024 114.647 23.632C114.951 24.24 115.367 24.72 115.895 25.072C116.423 25.424 117.031 25.6 117.719 25.6ZM127.869 15.16C128.333 15.16 128.725 15.36 129.045 15.76L137.061 25.72C137.269 25.976 137.373 26.264 137.373 26.584C137.373 26.984 137.221 27.328 136.917 27.616C136.613 27.904 136.277 28.048 135.909 28.048C135.445 28.048 135.053 27.84 134.733 27.424L126.717 17.464C126.509 17.208 126.405 16.92 126.405 16.6C126.405 16.184 126.549 15.84 126.837 15.568C127.141 15.296 127.485 15.16 127.869 15.16ZM127.893 28.024C127.573 28.024 127.253 27.904 126.933 27.664C126.629 27.408 126.477 27.104 126.477 26.752C126.477 26.432 126.597 26.128 126.837 25.84L130.509 21.352L131.949 23.752L129.045 27.424C128.741 27.824 128.357 28.024 127.893 28.024ZM135.885 15.16C136.269 15.16 136.589 15.296 136.845 15.568C137.117 15.824 137.253 16.12 137.253 16.456C137.253 16.616 137.229 16.776 137.181 16.936C137.133 17.096 137.045 17.248 136.917 17.392L133.293 21.808L131.781 19.72L134.733 15.808C135.053 15.376 135.437 15.16 135.885 15.16Z" fill="white"/>
</svg>
