<svg width="150" height="40" viewBox="0 0 150 40" fill="none" xmlns="http://www.w3.org/2000/svg">
<path d="M0.861938 28.9465L0.861941 10.6387L10.0717 15.7242V23.9118L17.4395 28.0311L24.8072 23.9118V15.7242L34.0171 10.6387V28.9465L17.4395 38.1004L0.861938 28.9465Z" fill="white"/>
<path fill-rule="evenodd" clip-rule="evenodd" d="M5.46682 13.183L0.861938 10.6403L17.4395 1.48633L34.0171 10.6403L29.4122 13.183V26.6596L17.4395 33.5251L5.46681 26.6596L5.46682 13.183ZM28.9133 13.4585L24.8072 15.7258V15.6749L17.4395 11.5556L10.0717 15.6749V15.7258L5.96567 13.4585V26.378L17.4395 32.9574L28.9133 26.378V13.4585Z" fill="#A1AEBF"/>
<path d="M42.8429 27.4997V12.1211H45.7605V24.8633H52.8337V27.4997H42.8429Z" fill="white"/>
<path d="M59.1328 27.8088C58.0424 27.8088 57.0625 27.5892 56.1931 27.1497C55.3237 26.7103 54.6385 26.0732 54.1375 25.2384C53.6364 24.4036 53.3859 23.4003 53.3859 22.2286V21.8771C53.3859 20.7054 53.6364 19.7021 54.1375 18.8673C54.6385 18.0325 55.3237 17.3954 56.1931 16.956C57.0625 16.5165 58.0424 16.2969 59.1328 16.2969C60.2233 16.2969 61.2032 16.5165 62.0726 16.956C62.942 17.3954 63.6272 18.0325 64.1282 18.8673C64.6292 19.7021 64.8798 20.7054 64.8798 21.8771V22.2286C64.8798 23.4003 64.6292 24.4036 64.1282 25.2384C63.6272 26.0732 62.942 26.7103 62.0726 27.1497C61.2032 27.5892 60.2233 27.8088 59.1328 27.8088ZM59.1328 25.3483C59.9875 25.3483 60.6948 25.0774 61.2548 24.5354C61.8148 23.9789 62.0947 23.1879 62.0947 22.1627V21.943C62.0947 20.9178 61.8148 20.1342 61.2548 19.5923C60.7096 19.0358 60.0022 18.7575 59.1328 18.7575C58.2782 18.7575 57.5708 19.0358 57.0109 19.5923C56.4509 20.1342 56.171 20.9178 56.171 21.943V22.1627C56.171 23.1879 56.4509 23.9789 57.0109 24.5354C57.5708 25.0774 58.2782 25.3483 59.1328 25.3483Z" fill="white"/>
<path d="M65.9261 22.0968V21.7453C65.9261 20.6029 66.1545 19.6289 66.6113 18.8233C67.0681 18.0031 67.6723 17.3807 68.4238 16.956C69.1901 16.5165 70.0226 16.2969 70.9214 16.2969C71.9235 16.2969 72.6824 16.4727 73.1981 16.8241C73.7139 17.1756 74.0897 17.5418 74.3254 17.9226H74.7233V16.6044H77.4641V29.4346C77.4641 30.1815 77.243 30.7747 76.801 31.2142C76.3589 31.6681 75.7695 31.8952 75.0327 31.8952H67.6944V29.4786H74.0602C74.4727 29.4786 74.6791 29.2588 74.6791 28.8194V25.9853H74.2812C74.1338 26.2197 73.9275 26.4614 73.6623 26.7103C73.397 26.9447 73.0434 27.1424 72.6013 27.3036C72.1593 27.4647 71.5993 27.5452 70.9214 27.5452C70.0226 27.5452 69.1901 27.3328 68.4238 26.9081C67.6723 26.4687 67.0681 25.8462 66.6113 25.0407C66.1545 24.2205 65.9261 23.2392 65.9261 22.0968ZM71.7172 25.1286C72.5718 25.1286 73.2865 24.8576 73.8612 24.3157C74.4359 23.7738 74.7233 23.0122 74.7233 22.0309V21.8112C74.7233 20.8152 74.4359 20.0537 73.8612 19.5264C73.3012 18.9845 72.5866 18.7135 71.7172 18.7135C70.8625 18.7135 70.1478 18.9845 69.5732 19.5264C68.9985 20.0537 68.7111 20.8152 68.7111 21.8112V22.0309C68.7111 23.0122 68.9985 23.7738 69.5732 24.3157C70.1478 24.8576 70.8625 25.1286 71.7172 25.1286Z" fill="white"/>
<path d="M84.7733 27.8088C83.6828 27.8088 82.7029 27.5892 81.8335 27.1497C80.9641 26.7103 80.2789 26.0732 79.7779 25.2384C79.2769 24.4036 79.0264 23.4003 79.0264 22.2286V21.8771C79.0264 20.7054 79.2769 19.7021 79.7779 18.8673C80.2789 18.0325 80.9641 17.3954 81.8335 16.956C82.7029 16.5165 83.6828 16.2969 84.7733 16.2969C85.8637 16.2969 86.8436 16.5165 87.713 16.956C88.5824 17.3954 89.2676 18.0325 89.7686 18.8673C90.2697 19.7021 90.5201 20.7054 90.5201 21.8771V22.2286C90.5201 23.4003 90.2697 24.4036 89.7686 25.2384C89.2676 26.0732 88.5824 26.7103 87.713 27.1497C86.8436 27.5892 85.8637 27.8088 84.7733 27.8088ZM84.7733 25.3483C85.6279 25.3483 86.3352 25.0774 86.8951 24.5354C87.4551 23.9789 87.7351 23.1879 87.7351 22.1627V21.943C87.7351 20.9178 87.4551 20.1342 86.8951 19.5923C86.35 19.0358 85.6427 18.7575 84.7733 18.7575C83.9186 18.7575 83.2113 19.0358 82.6513 19.5923C82.0914 20.1342 81.8114 20.9178 81.8114 21.943V22.1627C81.8114 23.1879 82.0914 23.9789 82.6513 24.5354C83.2113 25.0774 83.9186 25.3483 84.7733 25.3483Z" fill="white"/>
<path d="M92.0965 27.5007V16.6038H94.8815V27.5007H92.0965ZM93.489 15.3296C92.988 15.3296 92.5606 15.1685 92.207 14.8463C91.8681 14.524 91.6987 14.0992 91.6987 13.5721C91.6987 13.0448 91.8681 12.62 92.207 12.2978C92.5606 11.9756 92.988 11.8145 93.489 11.8145C94.0047 11.8145 94.4321 11.9756 94.771 12.2978C95.1099 12.62 95.2794 13.0448 95.2794 13.5721C95.2794 14.0992 95.1099 14.524 94.771 14.8463C94.4321 15.1685 94.0047 15.3296 93.489 15.3296Z" fill="white"/>
<path d="M96.9728 31.8952V16.6044H99.7138V17.9226H100.112C100.362 17.4979 100.752 17.1244 101.283 16.8021C101.814 16.4653 102.573 16.2969 103.56 16.2969C104.444 16.2969 105.262 16.5165 106.013 16.956C106.765 17.3807 107.369 18.0104 107.826 18.8454C108.282 19.6802 108.511 20.6908 108.511 21.8771V22.2286C108.511 23.4149 108.282 24.4255 107.826 25.2604C107.369 26.0953 106.765 26.7324 106.013 27.1717C105.262 27.5965 104.444 27.8088 103.56 27.8088C102.896 27.8088 102.336 27.7283 101.879 27.5672C101.437 27.4207 101.077 27.2303 100.797 26.996C100.531 26.747 100.318 26.498 100.156 26.249H99.7579V31.8952H96.9728ZM102.72 25.3922C103.589 25.3922 104.304 25.1212 104.864 24.5793C105.438 24.0228 105.726 23.2172 105.726 22.1627V21.943C105.726 20.8885 105.438 20.0902 104.864 19.5483C104.289 18.9918 103.575 18.7135 102.72 18.7135C101.865 18.7135 101.15 18.9918 100.576 19.5483C100.001 20.0902 99.7138 20.8885 99.7138 21.943V22.1627C99.7138 23.2172 100.001 24.0228 100.576 24.5793C101.15 25.1212 101.865 25.3922 102.72 25.3922Z" fill="white"/>
<path d="M114.627 27.8088C113.197 27.8088 112.026 27.5013 111.112 26.8861C110.199 26.271 109.646 25.3922 109.454 24.2498L112.019 23.5907C112.122 24.1033 112.292 24.5061 112.527 24.7991C112.778 25.092 113.08 25.3043 113.434 25.4361C113.801 25.5533 114.199 25.6119 114.627 25.6119C115.275 25.6119 115.754 25.502 116.064 25.2824C116.373 25.048 116.528 24.7624 116.528 24.4255C116.528 24.0887 116.381 23.8324 116.086 23.6566C115.792 23.4662 115.32 23.3124 114.671 23.1953L114.052 23.0854C113.286 22.9389 112.586 22.7412 111.952 22.4922C111.319 22.2286 110.81 21.8698 110.427 21.4158C110.044 20.9617 109.852 20.3758 109.852 19.6581C109.852 18.5744 110.25 17.7469 111.046 17.1756C111.842 16.5898 112.889 16.2969 114.185 16.2969C115.408 16.2969 116.425 16.5679 117.235 17.1098C118.045 17.6517 118.576 18.362 118.827 19.2408L116.241 20.0317C116.123 19.4751 115.88 19.0796 115.511 18.8454C115.157 18.611 114.715 18.4938 114.185 18.4938C113.654 18.4938 113.249 18.589 112.969 18.7794C112.69 18.9552 112.549 19.2041 112.549 19.5264C112.549 19.8779 112.696 20.1415 112.992 20.3173C113.286 20.4783 113.684 20.6029 114.185 20.6908L114.803 20.8006C115.629 20.947 116.373 21.1448 117.037 21.3937C117.714 21.6281 118.244 21.9723 118.628 22.4264C119.026 22.8657 119.225 23.4662 119.225 24.2278C119.225 25.3703 118.804 26.2563 117.964 26.8861C117.14 27.5013 116.027 27.8088 114.627 27.8088Z" fill="white"/>
<path d="M124.847 27.6761C123.993 27.6761 123.241 27.4857 122.593 27.105C121.959 26.7094 121.465 26.1676 121.111 25.4792C120.759 24.7908 120.581 23.9999 120.581 23.1065V16.6035H123.366V22.8868C123.366 23.707 123.565 24.3221 123.963 24.7322C124.375 25.1423 124.958 25.3474 125.709 25.3474C126.563 25.3474 127.227 25.0691 127.699 24.5125C128.17 23.9413 128.406 23.1505 128.406 22.1399V16.6035H131.191V27.5004H128.45V26.0723H128.053C127.875 26.4385 127.544 26.7973 127.058 27.1488C126.571 27.5004 125.834 27.6761 124.847 27.6761Z" fill="white"/>
<path d="M133.296 27.5003V16.6034H136.036V17.7898H136.434C136.625 17.4236 136.943 17.1088 137.384 16.8451C137.826 16.5669 138.409 16.4277 139.131 16.4277C139.912 16.4277 140.538 16.5815 141.01 16.889C141.481 17.182 141.842 17.5701 142.093 18.0534H142.49C142.741 17.5848 143.095 17.1967 143.552 16.889C144.009 16.5815 144.657 16.4277 145.497 16.4277C146.174 16.4277 146.786 16.5742 147.331 16.8671C147.891 17.1453 148.333 17.5774 148.658 18.1633C148.996 18.7345 149.166 19.4594 149.166 20.3383V27.5003H146.38V20.536C146.38 19.9355 146.226 19.4888 145.917 19.1959C145.607 18.8883 145.173 18.7345 144.613 18.7345C143.979 18.7345 143.485 18.9396 143.131 19.3496C142.793 19.7451 142.624 20.3163 142.624 21.0633V27.5003H139.838V20.536C139.838 19.9355 139.683 19.4888 139.375 19.1959C139.065 18.8883 138.63 18.7345 138.07 18.7345C137.436 18.7345 136.943 18.9396 136.589 19.3496C136.25 19.7451 136.08 20.3163 136.08 21.0633V27.5003H133.296Z" fill="white"/>
</svg>
