<svg width="150" height="40" viewBox="0 0 150 40" fill="none" xmlns="http://www.w3.org/2000/svg">
<path d="M16.0301 24.1028V32.1195C16.0301 32.4269 15.9073 32.7216 15.6886 32.9388C15.4701 33.1561 15.1736 33.2782 14.8643 33.2782C14.5552 33.2782 14.2587 33.1561 14.04 32.9388C13.8214 32.7216 13.6986 32.4269 13.6986 32.1195V24.1139C14.0232 24.3495 14.4123 24.481 14.8141 24.4909C15.2521 24.5033 15.6813 24.3663 16.0301 24.1028ZM25.9587 21.7854C25.6629 21.7854 25.3791 21.9022 25.1699 22.1101C24.9608 22.318 24.8432 22.6001 24.8432 22.8942V24.2913C24.8432 24.5986 24.966 24.8934 25.1847 25.1106C25.4032 25.3279 25.6997 25.45 26.0089 25.45C26.3182 25.45 26.6147 25.3279 26.8333 25.1106C27.0519 24.8934 27.1747 24.5986 27.1747 24.2913V22.9496C27.1834 22.7906 27.1575 22.6316 27.0989 22.4835C27.0402 22.3353 26.9502 22.2014 26.8347 22.0909C26.7193 21.9805 26.5814 21.896 26.4303 21.8432C26.2791 21.7906 26.1183 21.7708 25.9587 21.7854ZM11.1662 27.1409C10.7648 27.129 10.3762 26.9977 10.0506 26.7639V34.8028C10.0506 35.1117 10.174 35.4078 10.3937 35.6261C10.6134 35.8445 10.9113 35.9671 11.222 35.9671C11.5327 35.9671 11.8306 35.8445 12.0503 35.6261C12.2699 35.4078 12.3933 35.1117 12.3933 34.8028V26.8194C12.029 27.0534 11.5992 27.1661 11.1662 27.1409ZM22.322 19.3792C22.1708 19.3717 22.0198 19.3949 21.8779 19.4472C21.7361 19.4995 21.6064 19.58 21.4968 19.6837C21.3872 19.7875 21.3001 19.9122 21.2405 20.0505C21.1811 20.1888 21.1504 20.3377 21.1506 20.488V26.6641C21.1506 26.9729 21.274 27.2691 21.4937 27.4874C21.7134 27.7058 22.0113 27.8284 22.322 27.8284C22.6327 27.8284 22.9306 27.7058 23.1503 27.4874C23.3699 27.2691 23.4933 26.9729 23.4933 26.6641V20.5657C23.5023 20.4057 23.4761 20.2457 23.4168 20.0966C23.3574 19.9476 23.2664 19.8131 23.1497 19.7024C23.033 19.5918 22.8937 19.5075 22.7412 19.4556C22.5887 19.4036 22.4266 19.3851 22.2662 19.4014L22.322 19.3792ZM18.6183 21.7521C18.198 21.7492 17.789 21.6176 17.4469 21.3751V29.4362C17.4469 29.745 17.5703 30.0412 17.7899 30.2595C18.0097 30.4778 18.3076 30.6004 18.6183 30.6004C18.9289 30.6004 19.2268 30.4778 19.4466 30.2595C19.6662 30.0412 19.7896 29.745 19.7896 29.4362V21.3862C19.4358 21.6482 19.0037 21.7848 18.5625 21.7743L18.6183 21.7521ZM8.63385 27.9282V5.40815C8.63091 5.13364 8.51913 4.87139 8.32279 4.67831C8.12645 4.48523 7.8614 4.37694 7.58521 4.37695H7.33978C7.06359 4.37694 6.79854 4.48523 6.60219 4.67831C6.40585 4.87139 6.29407 5.13364 6.29114 5.40815V27.9282C6.29114 28.2046 6.40162 28.4697 6.59828 28.6652C6.79493 28.8607 7.06167 28.9705 7.33978 28.9705H7.58521C7.86333 28.9705 8.13005 28.8607 8.32671 28.6652C8.52337 28.4697 8.63385 28.2046 8.63385 27.9282ZM11.2889 26.2871H11.0435C10.7654 26.2871 10.4986 26.1774 10.302 25.9819C10.1053 25.7864 9.99485 25.5213 9.99485 25.2449V8.09148C9.9978 7.81699 10.1096 7.55471 10.3059 7.36164C10.5022 7.16856 10.7673 7.06028 11.0435 7.06029H11.2889C11.5651 7.06028 11.8302 7.16856 12.0265 7.36164C12.2228 7.55471 12.3346 7.81699 12.3376 8.09148V25.267C12.3376 25.5435 12.2271 25.8086 12.0304 26.0041C11.8338 26.1995 11.567 26.3093 11.2889 26.3093V26.2871ZM14.9815 23.6482H14.7249C14.4498 23.6482 14.1858 23.5395 13.9913 23.3461C13.7967 23.1527 13.6874 22.8905 13.6874 22.617V10.7526C13.686 10.6163 13.7117 10.481 13.7632 10.3546C13.8146 10.2282 13.8908 10.1132 13.9873 10.0163C14.0838 9.91937 14.1987 9.84242 14.3253 9.7899C14.4519 9.73739 14.5877 9.71034 14.7249 9.71036H14.9815C15.2577 9.71328 15.5215 9.82437 15.7158 10.0195C15.9101 10.2147 16.019 10.4781 16.019 10.7526V22.617C16.019 22.8905 15.9096 23.1527 15.7151 23.3461C15.5205 23.5395 15.2567 23.6482 14.9815 23.6482ZM18.674 20.9316H18.4398C18.1635 20.9316 17.8985 20.8233 17.7021 20.6302C17.5058 20.4371 17.394 20.1749 17.3911 19.9004V13.5136C17.382 13.3712 17.4023 13.2285 17.4509 13.0942C17.4994 12.9601 17.5753 12.8371 17.6736 12.7332C17.7719 12.6292 17.8906 12.5465 18.0224 12.4899C18.1542 12.4335 18.2962 12.4044 18.4398 12.4048H18.6852C18.9633 12.4048 19.23 12.5145 19.4267 12.71C19.6234 12.9055 19.7338 13.1706 19.7338 13.4471V19.8782C19.7353 20.016 19.7093 20.1527 19.6572 20.2805C19.6052 20.4082 19.5282 20.5244 19.4306 20.6224C19.3331 20.7203 19.2171 20.7981 19.089 20.8512C18.9611 20.9043 18.8239 20.9316 18.6852 20.9316H18.674ZM22.3777 18.5476H22.1323C21.8542 18.5476 21.5875 18.4378 21.3908 18.2424C21.1941 18.0469 21.0837 17.7818 21.0837 17.5053V15.8532C21.0866 15.5787 21.1984 15.3164 21.3947 15.1234C21.591 14.9302 21.8561 14.822 22.1323 14.822H22.3777C22.654 14.822 22.919 14.9302 23.1154 15.1234C23.3117 15.3164 23.4235 15.5787 23.4264 15.8532V17.5053C23.4264 17.7799 23.3175 18.0433 23.1232 18.2385C22.929 18.4336 22.6651 18.5447 22.3889 18.5476H22.3777Z" fill="white"/>
<path d="M57.9961 22.592C57.9961 23.904 57.7001 25.064 57.1081 26.072C56.5321 27.064 55.7481 27.84 54.7561 28.4C53.7801 28.96 52.6841 29.24 51.4681 29.24C50.2521 29.24 49.1481 28.96 48.1561 28.4C47.1801 27.84 46.3961 27.064 45.8041 26.072C45.2281 25.064 44.9401 23.904 44.9401 22.592C44.9401 21.28 45.2281 20.128 45.8041 19.136C46.3961 18.128 47.1801 17.344 48.1561 16.784C49.1481 16.208 50.2521 15.92 51.4681 15.92C52.6841 15.92 53.7801 16.208 54.7561 16.784C55.7481 17.344 56.5321 18.128 57.1081 19.136C57.7001 20.128 57.9961 21.28 57.9961 22.592ZM55.1161 22.592C55.1161 21.776 54.9481 21.072 54.6121 20.48C54.2921 19.872 53.8521 19.4 53.2921 19.064C52.7481 18.728 52.1401 18.56 51.4681 18.56C50.7961 18.56 50.1801 18.728 49.6201 19.064C49.0761 19.4 48.6361 19.872 48.3001 20.48C47.9801 21.072 47.8201 21.776 47.8201 22.592C47.8201 23.392 47.9801 24.096 48.3001 24.704C48.6361 25.296 49.0761 25.76 49.6201 26.096C50.1801 26.432 50.7961 26.6 51.4681 26.6C52.1401 26.6 52.7481 26.432 53.2921 26.096C53.8521 25.76 54.2921 25.296 54.6121 24.704C54.9481 24.096 55.1161 23.392 55.1161 22.592ZM67.5967 11.24C67.9487 11.24 68.2927 11.288 68.6287 11.384C68.9647 11.48 69.2447 11.64 69.4687 11.864C69.6927 12.072 69.8047 12.352 69.8047 12.704C69.8047 13.104 69.6847 13.424 69.4447 13.664C69.2207 13.888 68.9567 14 68.6527 14C68.5087 14 68.2927 13.968 68.0047 13.904C67.7167 13.824 67.4367 13.784 67.1647 13.784C66.7647 13.784 66.4527 13.872 66.2287 14.048C66.0207 14.224 65.8767 14.432 65.7967 14.672C65.7167 14.896 65.6767 15.096 65.6767 15.272V27.536C65.6767 27.952 65.5407 28.304 65.2687 28.592C64.9967 28.864 64.6527 29 64.2367 29C63.8207 29 63.4767 28.864 63.2047 28.592C62.9327 28.304 62.7967 27.952 62.7967 27.536V15.296C62.7967 14.16 63.1967 13.2 63.9967 12.416C64.7967 11.632 65.9967 11.24 67.5967 11.24ZM67.8607 16.4C68.2447 16.4 68.5647 16.528 68.8207 16.784C69.0767 17.024 69.2047 17.336 69.2047 17.72C69.2047 18.104 69.0767 18.424 68.8207 18.68C68.5647 18.92 68.2447 19.04 67.8607 19.04H61.5007C61.1167 19.04 60.7967 18.92 60.5407 18.68C60.2847 18.424 60.1567 18.104 60.1567 17.72C60.1567 17.336 60.2847 17.024 60.5407 16.784C60.7967 16.528 61.1167 16.4 61.5007 16.4H67.8607ZM78.0847 11.24C78.4367 11.24 78.7807 11.288 79.1167 11.384C79.4527 11.48 79.7327 11.64 79.9567 11.864C80.1807 12.072 80.2927 12.352 80.2927 12.704C80.2927 13.104 80.1727 13.424 79.9327 13.664C79.7087 13.888 79.4447 14 79.1407 14C78.9967 14 78.7807 13.968 78.4927 13.904C78.2047 13.824 77.9247 13.784 77.6527 13.784C77.2527 13.784 76.9407 13.872 76.7167 14.048C76.5087 14.224 76.3647 14.432 76.2847 14.672C76.2047 14.896 76.1647 15.096 76.1647 15.272V27.536C76.1647 27.952 76.0287 28.304 75.7567 28.592C75.4847 28.864 75.1407 29 74.7247 29C74.3087 29 73.9647 28.864 73.6927 28.592C73.4207 28.304 73.2847 27.952 73.2847 27.536V15.296C73.2847 14.16 73.6847 13.2 74.4847 12.416C75.2847 11.632 76.4847 11.24 78.0847 11.24ZM78.3487 16.4C78.7327 16.4 79.0527 16.528 79.3087 16.784C79.5647 17.024 79.6927 17.336 79.6927 17.72C79.6927 18.104 79.5647 18.424 79.3087 18.68C79.0527 18.92 78.7327 19.04 78.3487 19.04H71.9887C71.6047 19.04 71.2847 18.92 71.0287 18.68C70.7727 18.424 70.6447 18.104 70.6447 17.72C70.6447 17.336 70.7727 17.024 71.0287 16.784C71.2847 16.528 71.6047 16.4 71.9887 16.4H78.3487ZM89.1972 15.92C90.4772 15.92 91.4212 16.232 92.0292 16.856C92.6372 17.464 93.0372 18.256 93.2292 19.232L92.8212 19.016L93.0132 18.632C93.2052 18.264 93.5012 17.872 93.9012 17.456C94.3012 17.024 94.7812 16.664 95.3412 16.376C95.9172 16.072 96.5572 15.92 97.2612 15.92C98.4132 15.92 99.2852 16.168 99.8772 16.664C100.485 17.16 100.901 17.824 101.125 18.656C101.349 19.472 101.461 20.384 101.461 21.392V27.536C101.461 27.952 101.325 28.304 101.053 28.592C100.781 28.864 100.437 29 100.021 29C99.6052 29 99.2612 28.864 98.9892 28.592C98.7172 28.304 98.5812 27.952 98.5812 27.536V21.392C98.5812 20.864 98.5172 20.392 98.3892 19.976C98.2612 19.544 98.0292 19.2 97.6932 18.944C97.3572 18.688 96.8772 18.56 96.2532 18.56C95.6452 18.56 95.1252 18.688 94.6932 18.944C94.2612 19.2 93.9332 19.544 93.7092 19.976C93.5012 20.392 93.3972 20.864 93.3972 21.392V27.536C93.3972 27.952 93.2612 28.304 92.9892 28.592C92.7172 28.864 92.3732 29 91.9572 29C91.5412 29 91.1972 28.864 90.9252 28.592C90.6532 28.304 90.5172 27.952 90.5172 27.536V21.392C90.5172 20.864 90.4532 20.392 90.3252 19.976C90.1972 19.544 89.9652 19.2 89.6292 18.944C89.2932 18.688 88.8132 18.56 88.1892 18.56C87.5812 18.56 87.0612 18.688 86.6292 18.944C86.1972 19.2 85.8692 19.544 85.6452 19.976C85.4372 20.392 85.3332 20.864 85.3332 21.392V27.536C85.3332 27.952 85.1972 28.304 84.9252 28.592C84.6532 28.864 84.3092 29 83.8932 29C83.4772 29 83.1332 28.864 82.8612 28.592C82.5892 28.304 82.4532 27.952 82.4532 27.536V17.624C82.4532 17.208 82.5892 16.864 82.8612 16.592C83.1332 16.304 83.4772 16.16 83.8932 16.16C84.3092 16.16 84.6532 16.304 84.9252 16.592C85.1972 16.864 85.3332 17.208 85.3332 17.624V18.656L84.9732 18.584C85.1172 18.312 85.3172 18.024 85.5732 17.72C85.8292 17.4 86.1412 17.104 86.5092 16.832C86.8772 16.56 87.2852 16.344 87.7332 16.184C88.1812 16.008 88.6692 15.92 89.1972 15.92ZM115.57 15.92C115.986 15.92 116.33 16.056 116.602 16.328C116.874 16.6 117.01 16.952 117.01 17.384V27.536C117.01 27.952 116.874 28.304 116.602 28.592C116.33 28.864 115.986 29 115.57 29C115.154 29 114.81 28.864 114.538 28.592C114.266 28.304 114.13 27.952 114.13 27.536V26.36L114.658 26.576C114.658 26.784 114.546 27.04 114.322 27.344C114.098 27.632 113.794 27.92 113.41 28.208C113.026 28.496 112.57 28.744 112.042 28.952C111.53 29.144 110.97 29.24 110.362 29.24C109.258 29.24 108.258 28.96 107.362 28.4C106.466 27.824 105.754 27.04 105.226 26.048C104.714 25.04 104.458 23.888 104.458 22.592C104.458 21.28 104.714 20.128 105.226 19.136C105.754 18.128 106.458 17.344 107.338 16.784C108.218 16.208 109.194 15.92 110.266 15.92C110.954 15.92 111.586 16.024 112.162 16.232C112.738 16.44 113.234 16.704 113.65 17.024C114.082 17.344 114.41 17.672 114.634 18.008C114.874 18.328 114.994 18.6 114.994 18.824L114.13 19.136V17.384C114.13 16.968 114.266 16.624 114.538 16.352C114.81 16.064 115.154 15.92 115.57 15.92ZM110.722 26.6C111.426 26.6 112.042 26.424 112.57 26.072C113.098 25.72 113.506 25.24 113.794 24.632C114.098 24.024 114.25 23.344 114.25 22.592C114.25 21.824 114.098 21.136 113.794 20.528C113.506 19.92 113.098 19.44 112.57 19.088C112.042 18.736 111.426 18.56 110.722 18.56C110.034 18.56 109.426 18.736 108.898 19.088C108.37 19.44 107.954 19.92 107.65 20.528C107.362 21.136 107.218 21.824 107.218 22.592C107.218 23.344 107.362 24.024 107.65 24.632C107.954 25.24 108.37 25.72 108.898 26.072C109.426 26.424 110.034 26.6 110.722 26.6ZM120.873 16.16C121.337 16.16 121.729 16.36 122.049 16.76L130.065 26.72C130.273 26.976 130.377 27.264 130.377 27.584C130.377 27.984 130.225 28.328 129.921 28.616C129.617 28.904 129.281 29.048 128.913 29.048C128.449 29.048 128.057 28.84 127.737 28.424L119.721 18.464C119.513 18.208 119.409 17.92 119.409 17.6C119.409 17.184 119.553 16.84 119.841 16.568C120.145 16.296 120.489 16.16 120.873 16.16ZM120.897 29.024C120.577 29.024 120.257 28.904 119.937 28.664C119.633 28.408 119.481 28.104 119.481 27.752C119.481 27.432 119.601 27.128 119.841 26.84L123.513 22.352L124.953 24.752L122.049 28.424C121.745 28.824 121.361 29.024 120.897 29.024ZM128.889 16.16C129.273 16.16 129.593 16.296 129.849 16.568C130.121 16.824 130.257 17.12 130.257 17.456C130.257 17.616 130.233 17.776 130.185 17.936C130.137 18.096 130.049 18.248 129.921 18.392L126.297 22.808L124.785 20.72L127.737 16.808C128.057 16.376 128.441 16.16 128.889 16.16Z" fill="white"/>
</svg>
